<?xml version="1.0" encoding="UTF-8"?>
<!-- Generator: visioncortex VTracer 0.6.4 -->
<svg version="1.1" xmlns="http://www.w3.org/2000/svg" width="851" height="497">
<path d="M0 0 C0.97 -0 1.95 -0.01 2.95 -0.01 C8.12 -0.02 13.3 -0.03 18.47 -0.04 C22.65 -0.04 26.83 -0.06 31.02 -0.08 C114.33 -0.52 199.2 11.4 275.98 45.2 C277.13 45.7 278.27 46.19 279.46 46.7 C297.58 54.78 314.89 64.56 331.26 75.76 C335.92 78.94 340.55 81.59 345.67 83.95 C353.78 87.87 360.87 92.7 367.98 98.2 C369.36 99.26 369.36 99.26 370.77 100.35 C400.39 123.89 435.41 159.7 442.98 198.2 C443.16 200.95 443.26 203.6 443.26 206.35 C443.26 207.12 443.27 207.89 443.27 208.69 C443.28 211.23 443.28 213.76 443.28 216.3 C443.29 218.09 443.29 219.88 443.29 221.67 C443.3 225.43 443.3 229.19 443.3 232.95 C443.29 236.76 443.3 240.56 443.32 244.37 C443.44 270.72 443.36 296.67 435.98 322.2 C435.75 322.99 435.53 323.77 435.29 324.58 C430.89 339.41 424.82 353.35 417.98 367.2 C417.55 368.08 417.11 368.97 416.67 369.88 C395.43 412.38 357.61 476.59 310.97 493.28 C300.51 496.52 290.44 496.79 279.54 496.67 C276.59 496.64 273.64 496.65 270.68 496.66 C268.77 496.66 266.86 496.65 264.96 496.64 C264.09 496.64 263.22 496.64 262.32 496.65 C249.08 496.44 238.45 490.31 229.29 480.99 C222.92 474.22 217.48 466.68 211.98 459.2 C211.4 458.41 210.82 457.62 210.22 456.81 C207.83 453.57 205.45 450.33 203.07 447.09 C176.44 410.9 145.75 376.78 100.98 364.2 C99.96 363.91 99.96 363.91 98.91 363.61 C50.7 349.9 -2.58 354.77 -51.02 365.2 C-52.31 365.48 -52.31 365.48 -53.63 365.75 C-82.52 371.96 -110.76 384.61 -133.02 404.2 C-134.28 405.3 -134.28 405.3 -135.56 406.41 C-138.08 408.64 -140.56 410.91 -143.02 413.2 C-143.83 413.96 -144.64 414.72 -145.48 415.5 C-158.85 428.4 -169.81 444.19 -179.64 459.89 C-199.48 491.47 -199.48 491.47 -213.86 495.77 C-243 501.57 -272 489.58 -295.82 473.72 C-304 468.09 -311.54 461.72 -319.02 455.2 C-320.06 454.33 -320.06 454.33 -321.12 453.45 C-331.76 444.45 -341.57 434.28 -350.02 423.2 C-350.44 422.66 -350.87 422.11 -351.3 421.55 C-363.04 406.33 -372.26 390.44 -378.69 372.3 C-380.41 367.51 -382.53 363 -384.79 358.44 C-392.81 342.25 -399.08 325.95 -403.39 308.39 C-403.63 307.43 -403.87 306.46 -404.12 305.47 C-408.18 287.97 -408.39 270.58 -408.33 252.7 C-408.33 251.49 -408.33 250.28 -408.32 249.03 C-408.12 191.91 -408.12 191.91 -397.02 173.2 C-396.32 171.93 -395.62 170.67 -394.92 169.39 C-386.9 155.17 -377.27 142.02 -366.02 130.2 C-364.89 128.9 -363.76 127.58 -362.64 126.27 C-354.56 117 -345.71 108.76 -336.02 101.2 C-334.54 100.02 -334.54 100.02 -333.04 98.81 C-315.03 84.5 -295.33 72.85 -273.55 65.35 C-266.36 62.85 -259.69 59.67 -252.89 56.27 C-217.08 38.75 -178.79 26.3 -140.02 17.2 C-138.94 16.95 -137.87 16.69 -136.76 16.43 C-110.09 10.22 -83.03 5.93 -55.83 2.89 C-55.11 2.81 -54.39 2.73 -53.65 2.64 C-35.77 0.66 -17.97 0.04 0 0 Z " fill="#413760" transform="translate(408.01953125,0.796875)"/>
<path d="M0 0 C8.34 7.84 13.04 19.43 13.5 30.69 C13.21 42.23 9.16 52.77 1 61 C-9.39 70.55 -19.82 73.63 -33.79 73.34 C-44.97 72.73 -54.52 66.95 -61.96 58.87 C-70.95 47.96 -72.9 37.04 -72.22 23.23 C-71.22 13.15 -64.78 4.52 -57.62 -2.25 C-38.29 -15.14 -18.32 -14.91 0 0 Z " fill="#673867" transform="translate(599,242)"/>
<path d="M0 0 C8.38 6.63 14.26 16.79 15.6 27.36 C16.41 37.54 15.49 45.36 10.6 54.36 C10.17 55.18 9.73 55.99 9.29 56.82 C3.38 66.69 -5.45 72.39 -16.4 75.36 C-28.3 78.13 -38.98 75.85 -49.38 69.66 C-58.22 63.98 -64.43 55.64 -67.74 45.62 C-69.69 35.96 -69.99 24.29 -65.4 15.36 C-65 14.55 -64.59 13.73 -64.18 12.89 C-58.28 2.03 -50.05 -3.84 -38.4 -7.64 C-23.66 -11.36 -12.27 -8.38 0 0 Z " fill="#673867" transform="translate(677.3984375,196.63671875)"/>
<path d="M0 0 C8.95 6.76 15.33 15.87 17.33 27.09 C18.89 40.87 16.67 50.6 8.81 62.06 C2.17 70.24 -6.21 74.86 -16.31 77.44 C-29.88 78.55 -40.99 76.5 -51.93 67.89 C-59.44 61.11 -65.58 51.99 -66.57 41.68 C-67.08 28.21 -66.23 18.09 -57.19 7.38 C-41.25 -9.06 -19.62 -12.96 0 0 Z " fill="#673867" transform="translate(761.375,161.3125)"/>
<path d="M0 0 C7.89 1.13 7.89 1.13 10.98 2.9 C11.66 3.29 12.35 3.68 13.05 4.08 C13.76 4.51 14.46 4.94 15.19 5.38 C15.93 5.82 16.67 6.26 17.44 6.72 C24.46 11.05 30.25 16.09 36 22 C36.75 22.75 37.5 23.5 38.27 24.27 C45.32 31.73 54 43.19 54 54 C36.18 54 18.36 54 0 54 C0 36.18 0 18.36 0 0 Z " fill="#6C446C" transform="translate(220,145)"/>
<path d="M0 0 C1 2 1 2 0.21 4.69 C-8.52 27.33 -24.23 44.95 -46.54 55.16 C-49 56 -49 56 -53 56 C-53 38.18 -53 20.36 -53 2 C-27.06 1.56 -27.06 1.56 -18.86 1.43 C-16.73 1.39 -14.6 1.36 -12.47 1.32 C-11.35 1.3 -10.24 1.28 -9.09 1.27 C-7.5 1.24 -7.5 1.24 -5.89 1.21 C-4.97 1.19 -4.04 1.17 -3.09 1.16 C-1.01 1.23 -1.01 1.23 0 0 Z " fill="#6C446C" transform="translate(274,249)"/>
<path d="M0 0 C17.16 0 34.32 0 52 0 C52 17.49 52 34.98 52 53 C35.7 50.96 22.14 38.06 12.03 25.56 C6.32 17.74 1.6 9.6 0 0 Z " fill="#6C446C" transform="translate(119,251)"/>
<path d="M0 0 C1.32 0 2.64 0 4 0 C4 17.16 4 34.32 4 52 C-12.83 52 -29.66 52 -47 52 C-44.62 35.35 -32.27 21.25 -19.45 10.95 C-7.13 2 -7.13 2 0 2 C0 1.34 0 0.68 0 0 Z " fill="#6C446C" transform="translate(167,146)"/>
<path d="M0 0 C2.08 3.71 2.43 7.42 1.44 11.56 C-1.31 14.75 -3.93 16.44 -7.77 18.12 C-8.82 18.58 -9.86 19.05 -10.94 19.52 C-12.08 20.01 -13.21 20.5 -14.38 21 C-16.14 21.77 -16.14 21.77 -17.93 22.56 C-32.07 28.73 -46.3 34.69 -60.56 40.56 C-61.47 40.94 -62.37 41.31 -63.3 41.7 C-66.04 42.74 -67.66 43.07 -70.56 42.56 C-74.09 39.51 -76.31 37.42 -76.94 32.75 C-76.43 28.41 -74.86 27.38 -71.56 24.56 C-68.96 23.16 -66.46 21.96 -63.75 20.81 C-62.93 20.46 -62.11 20.1 -61.26 19.73 C-59.28 18.87 -57.29 18.02 -55.3 17.17 C-51.62 15.6 -47.96 13.98 -44.3 12.36 C-40.73 10.79 -37.16 9.23 -33.58 7.68 C-31.79 6.9 -29.99 6.11 -28.2 5.31 C-25.63 4.18 -23.06 3.07 -20.49 1.96 C-19.72 1.62 -18.96 1.28 -18.17 0.92 C-12.31 -1.56 -5.84 -3.28 0 0 Z " fill="#B479B5" transform="translate(641.5625,89.4375)"/>
<path d="M0 0 C0.83 -0.03 1.67 -0.07 2.53 -0.1 C6.23 0.96 7.98 3.54 10.06 6.62 C11.18 9.2 12.11 11.6 12.96 14.25 C13.19 14.97 13.43 15.68 13.68 16.41 C14.17 17.91 14.66 19.4 15.14 20.9 C15.88 23.19 16.63 25.47 17.4 27.75 C17.88 29.21 18.35 30.67 18.83 32.13 C19.06 32.81 19.28 33.48 19.51 34.18 C20.72 37.96 21.06 40.56 21.06 44.62 C13.14 44.62 5.22 44.62 -2.94 44.62 C-2.94 42.65 -2.94 40.66 -2.94 38.62 C2.34 38.62 7.62 38.62 13.06 38.62 C8.11 23.28 8.11 23.28 3.06 7.62 C0.59 7.13 0.59 7.13 -1.94 6.62 C-5.35 14.68 -8.05 22.91 -10.69 31.25 C-11.1 32.55 -11.52 33.86 -11.93 35.16 C-12.94 38.31 -13.94 41.47 -14.94 44.62 C-19.48 44.71 -24.02 44.77 -28.56 44.81 C-30.49 44.85 -30.49 44.85 -32.46 44.89 C-34.32 44.9 -34.32 44.9 -36.23 44.92 C-37.94 44.94 -37.94 44.94 -39.69 44.97 C-43.5 44.57 -45.75 43.76 -48.94 41.62 C-52.98 35.49 -52.49 29.29 -52.5 22.19 C-52.54 20.99 -52.57 19.78 -52.61 18.54 C-52.66 8.66 -52.66 8.66 -49.71 4.3 C-45.88 0.66 -41.58 0.91 -36.52 1.01 C-35.38 1.07 -34.24 1.13 -33.06 1.19 C-31.31 1.23 -31.31 1.23 -29.53 1.28 C-26.66 1.37 -23.8 1.48 -20.94 1.62 C-20.94 3.27 -20.94 4.92 -20.94 6.62 C-21.92 6.65 -21.92 6.65 -22.93 6.67 C-25.89 6.74 -28.85 6.84 -31.81 6.94 C-32.85 6.96 -33.88 6.98 -34.94 7.01 C-36.42 7.06 -36.42 7.06 -37.93 7.11 C-38.84 7.14 -39.75 7.17 -40.69 7.19 C-41.43 7.34 -42.17 7.48 -42.94 7.62 C-45.18 10.98 -45.19 12.14 -45.2 16.06 C-45.21 17.12 -45.21 18.18 -45.21 19.27 C-45.2 20.38 -45.2 21.49 -45.19 22.62 C-45.2 23.73 -45.2 24.84 -45.21 25.98 C-45.21 27.04 -45.21 28.1 -45.2 29.19 C-45.2 30.16 -45.2 31.13 -45.2 32.13 C-45.11 34.87 -45.11 34.87 -42.94 37.62 C-39.99 38.01 -37.27 38.23 -34.31 38.31 C-31.55 38.42 -28.79 38.52 -25.94 38.62 C-25.94 33.02 -25.94 27.41 -25.94 21.62 C-29.57 21.62 -33.2 21.62 -36.94 21.62 C-36.94 19.97 -36.94 18.33 -36.94 16.62 C-31.66 16.62 -26.38 16.62 -20.94 16.62 C-20.94 23.89 -20.94 31.15 -20.94 38.62 C-20.28 38.62 -19.62 38.62 -18.94 38.62 C-18.8 38.01 -18.67 37.4 -18.53 36.77 C-16.81 29.47 -14.71 22.3 -12.5 15.12 C-12.07 13.67 -12.07 13.67 -11.63 12.19 C-7.83 0.07 -7.83 0.07 0 0 Z " fill="#F5F5F7" transform="translate(470.9375,54.375)"/>
<path d="M0 0 C1.12 0.01 2.23 0.02 3.38 0.03 C5.12 0.07 5.12 0.07 6.89 0.11 C8.65 0.13 8.65 0.13 10.45 0.15 C13.35 0.18 16.24 0.24 19.14 0.29 C19.14 5.24 19.14 10.19 19.14 15.29 C17.82 15.29 16.5 15.29 15.14 15.29 C15.14 19.91 15.14 24.53 15.14 29.29 C16.46 29.62 17.78 29.95 19.14 30.29 C19.14 34.91 19.14 39.53 19.14 44.29 C15.1 44.43 11.06 44.53 7.02 44.61 C5.3 44.67 5.3 44.67 3.55 44.73 C-5.95 44.87 -5.95 44.87 -9.54 42.02 C-14.8 35.84 -14.23 30.28 -14.23 22.42 C-14.26 21.25 -14.28 20.07 -14.31 18.87 C-14.35 8.06 -14.35 8.06 -9.86 3.29 C-6.58 0.28 -4.42 -0.07 0 0 Z " fill="#8B859F" transform="translate(397.859375,54.70703125)"/>
<path d="M0 0 C3.8 2.71 5.84 5.48 7 10 C7.44 13.89 7.58 17.04 5.5 20.5 C5 21 4.51 21.49 4 22 C4.95 22.74 5.9 23.49 6.88 24.25 C10.83 27.6 11.81 29.58 12.5 34.81 C12.39 39.16 10.68 41.46 7.72 44.52 C4.37 47.4 1.43 49 -3 49 C-4.75 44.98 -6.41 40.96 -8 36.88 C-9.4 33.35 -10.99 30.23 -13 27 C-13.72 25.4 -14.43 23.79 -15.1 22.16 C-15.82 20.43 -16.59 18.73 -17.37 17.02 C-17.85 15.96 -18.32 14.9 -18.81 13.81 C-19.5 12.31 -19.5 12.31 -20.21 10.77 C-21 8 -21 8 -20.35 5.78 C-15.64 -0.41 -7.21 -1.31 0 0 Z " fill="#D9BDD9" transform="translate(650,204)"/>
<path d="M0 0 C2.75 2.63 5.04 5.29 7.21 8.41 C8.09 9.68 8.09 9.68 8.99 10.97 C9.59 11.85 10.19 12.72 10.81 13.62 C11.4 14.48 11.99 15.33 12.6 16.21 C13.8 17.93 14.99 19.65 16.17 21.37 C17.44 23.19 18.72 25 20.01 26.81 C20.65 27.7 21.29 28.6 21.95 29.52 C22.53 30.33 23.12 31.15 23.72 31.98 C25 34 25 34 25 36 C23.02 36.66 21.04 37.32 19 38 C16.69 34.7 14.38 31.4 12 28 C10.68 28.33 9.36 28.66 8 29 C8.15 29.99 8.31 30.98 8.46 32 C9.03 35.97 9.31 39.94 9.56 43.94 C9.61 44.62 9.65 45.31 9.69 46.01 C9.8 47.67 9.9 49.34 10 51 C7.69 51 5.38 51 3 51 C2.91 50.29 2.81 49.58 2.71 48.85 C0.27 30.57 0.27 30.57 -4.95 12.95 C-6.01 9.96 -6.57 7.14 -7 4 C-4.69 2.68 -2.38 1.36 0 0 Z " fill="#D8BDD8" transform="translate(563,246)"/>
<path d="M0 0 C1.48 0.03 1.48 0.03 2.98 0.05 C5.4 0.1 7.83 0.17 10.25 0.25 C10.25 2.23 10.25 4.21 10.25 6.25 C3.98 6.25 -2.29 6.25 -8.75 6.25 C-8.75 6.91 -8.75 7.57 -8.75 8.25 C-8.04 8.18 -7.32 8.11 -6.59 8.04 C-1.46 7.75 2.27 7.59 6.38 10.94 C8.99 13.62 10.16 15.41 10.25 19.25 C10.36 20.29 10.36 20.29 10.46 21.35 C10.75 25.48 10.67 28.35 8.06 31.69 C3.91 35.47 0.51 36.51 -5.05 36.45 C-6.03 36.44 -7 36.43 -8.01 36.43 C-9.02 36.41 -10.02 36.39 -11.06 36.38 C-12.09 36.37 -13.12 36.36 -14.17 36.35 C-16.7 36.32 -19.22 36.29 -21.75 36.25 C-21.75 34.27 -21.75 32.29 -21.75 30.25 C-20.78 30.24 -20.78 30.24 -19.79 30.24 C-16.86 30.2 -13.93 30.13 -11 30.06 C-9.98 30.06 -8.97 30.05 -7.92 30.04 C-1.96 29.97 -1.96 29.97 2.95 26.93 C4.74 23.24 4.4 21.14 3.25 17.25 C-0.54 13.53 -4.14 13.86 -9.19 13.75 C-11.75 13.25 -11.75 13.25 -13.56 11.37 C-15.06 8.69 -15.28 7.27 -14.75 4.25 C-11.23 -1.3 -5.86 -0.2 0 0 Z " fill="#F6F5F7" transform="translate(370.75,62.75)"/>
<path d="M0 0 C1.02 0.01 2.04 0.01 3.1 0.02 C4.15 0.04 5.21 0.05 6.29 0.07 C7.37 0.08 8.44 0.09 9.55 0.1 C12.19 0.12 14.84 0.15 17.48 0.2 C17.48 1.85 17.48 3.5 17.48 5.2 C16.83 5.21 16.18 5.22 15.51 5.24 C12.56 5.31 9.61 5.41 6.67 5.51 C5.64 5.53 4.62 5.55 3.56 5.58 C2.58 5.61 1.6 5.65 0.59 5.68 C-0.32 5.71 -1.23 5.74 -2.16 5.76 C-4.54 6.04 -4.54 6.04 -6.32 7.39 C-7.98 9.88 -7.89 11.65 -7.88 14.63 C-7.88 15.69 -7.88 16.75 -7.88 17.84 C-7.86 18.95 -7.85 20.06 -7.83 21.2 C-7.84 22.3 -7.84 23.41 -7.84 24.55 C-8 30.73 -8 30.73 -5.52 36.2 C-3.01 36.7 -3.01 36.7 -0.07 36.71 C1 36.74 2.08 36.78 3.19 36.81 C4.32 36.84 5.44 36.86 6.61 36.88 C7.74 36.92 8.88 36.95 10.05 36.99 C12.86 37.07 15.67 37.14 18.48 37.2 C18.48 39.18 18.48 41.16 18.48 43.2 C14.44 43.34 10.4 43.43 6.36 43.51 C4.64 43.57 4.64 43.57 2.89 43.63 C-6.61 43.77 -6.61 43.77 -10.2 40.93 C-15.46 34.74 -14.89 29.19 -14.89 21.32 C-14.92 20.15 -14.94 18.98 -14.97 17.77 C-15 8.14 -15 8.14 -12.81 4.5 C-8.98 0.64 -5.32 -0.06 0 0 Z " fill="#F3F3F5" transform="translate(398.51953125,55.8046875)"/>
<path d="M0 0 C1.12 0.01 2.23 0.03 3.38 0.04 C5.12 0.09 5.12 0.09 6.89 0.14 C8.65 0.17 8.65 0.17 10.45 0.2 C13.35 0.24 16.24 0.31 19.14 0.39 C19.14 2.04 19.14 3.69 19.14 5.39 C18.17 5.4 18.17 5.4 17.18 5.4 C14.25 5.44 11.32 5.51 8.39 5.58 C7.37 5.58 6.36 5.59 5.31 5.6 C-0.65 5.67 -0.65 5.67 -5.57 8.71 C-7.34 12.38 -6.94 14.52 -5.86 18.39 C-4.7 20.17 -4.7 20.17 -2.86 21.39 C-0.26 21.82 -0.26 21.82 2.58 21.83 C7.82 22.19 7.82 22.19 10.83 24.08 C12.55 27.11 12.65 28.96 12.14 32.39 C10.93 34.06 10.93 34.06 9.14 35.39 C6.78 35.73 6.78 35.73 4.04 35.68 C3.05 35.67 2.07 35.66 1.06 35.65 C0.03 35.63 -0.99 35.6 -2.05 35.58 C-3.08 35.56 -4.12 35.55 -5.19 35.54 C-7.74 35.5 -10.3 35.45 -12.86 35.39 C-12.86 33.74 -12.86 32.09 -12.86 30.39 C-6.59 30.39 -0.32 30.39 6.14 30.39 C6.14 29.73 6.14 29.07 6.14 28.39 C5.57 28.44 5 28.48 4.42 28.53 C-1.64 28.81 -4.96 28.02 -9.86 24.39 C-13.33 20.58 -13.31 16.7 -13.15 11.76 C-12.26 4.47 -7.13 -0.15 0 0 Z " fill="#F8F8F9" transform="translate(361.859375,55.609375)"/>
<path d="M0 0 C0.33 2.64 0.66 5.28 1 8 C-0.11 8.43 -1.23 8.87 -2.38 9.31 C-6.18 10.7 -6.18 10.7 -8 14 C-8.81 21.57 -6.96 29.29 -2.16 35.31 C0.4 37.32 1.55 37.44 4.75 37.25 C5.95 37.2 5.95 37.2 7.17 37.14 C7.78 37.09 8.38 37.05 9 37 C9.33 38.65 9.66 40.3 10 42 C4.98 43.4 0.16 43.96 -5 43 C-12.35 38.47 -14.99 28.9 -17 21 C-18.07 14.07 -16.98 9.73 -13 4 C-12.34 4 -11.68 4 -11 4 C-11 3.34 -11 2.68 -11 2 C-3.57 -1.57 -3.57 -1.57 0 0 Z " fill="#D8BCD8" transform="translate(741,170)"/>
<path d="M0 0 C1.32 0.33 2.64 0.66 4 1 C5.34 3.7 5.34 3.7 6.5 7.25 C6.71 7.87 6.91 8.49 7.13 9.13 C7.77 11.08 8.39 13.04 9 15 C9.4 16.24 9.8 17.47 10.21 18.75 C13 27.59 13 27.59 13 30 C10.69 30.03 8.38 30.05 6.06 30.06 C4.77 30.07 3.49 30.09 2.16 30.1 C-1 30 -1 30 -2 29 C-2.66 31.64 -3.32 34.28 -4 37 C-6.64 37 -9.28 37 -12 37 C-8.04 24.79 -4.08 12.58 0 0 Z " fill="#F3F3F5" transform="translate(469,62)"/>
<path d="M0 0 C0.91 0.01 1.82 0.02 2.76 0.03 C3.75 0.04 4.73 0.04 5.75 0.05 C7.3 0.08 7.3 0.08 8.88 0.1 C9.92 0.11 10.96 0.12 12.03 0.13 C14.61 0.15 17.18 0.19 19.75 0.23 C19.75 2.21 19.75 4.19 19.75 6.23 C13.48 6.23 7.21 6.23 0.75 6.23 C1.08 11.51 1.41 16.79 1.75 22.23 C3.07 22.56 4.39 22.89 5.75 23.23 C5.75 22.57 5.75 21.91 5.75 21.23 C4.76 21.23 3.77 21.23 2.75 21.23 C2.75 19.25 2.75 17.27 2.75 15.23 C5.72 15.23 8.69 15.23 11.75 15.23 C11.75 19.52 11.75 23.81 11.75 28.23 C9.27 28.25 6.8 28.27 4.32 28.29 C3.61 28.3 2.9 28.31 2.17 28.31 C0.37 28.32 -1.44 28.28 -3.25 28.23 C-5.84 25.64 -4.43 18.28 -4.43 14.79 C-4.45 13.62 -4.46 12.45 -4.47 11.24 C-4.47 10.12 -4.48 9.01 -4.48 7.86 C-4.48 6.83 -4.49 5.79 -4.49 4.73 C-4.17 1.42 -3.37 0.34 0 0 Z " fill="#F7F7F8" transform="translate(431.24658203125,62.77294921875)"/>
<path d="M0 0 C7.59 0 15.18 0 23 0 C23 2.64 23 5.28 23 8 C22.34 8.03 21.68 8.05 21 8.08 C18.02 8.19 15.04 8.31 12.06 8.44 C10.5 8.5 10.5 8.5 8.91 8.56 C7.42 8.62 7.42 8.62 5.91 8.68 C4.99 8.72 4.08 8.76 3.13 8.79 C1.02 8.77 1.02 8.77 0 10 C-0.09 11.85 -0.11 13.71 -0.1 15.57 C-0.09 16.69 -0.09 17.82 -0.09 18.97 C-0.08 20.16 -0.07 21.34 -0.06 22.56 C-0.06 23.75 -0.05 24.94 -0.05 26.16 C-0.04 29.11 -0.02 32.05 0 35 C4.95 35.33 9.9 35.66 15 36 C15 31.71 15 27.42 15 23 C12.03 23 9.06 23 6 23 C6 24.98 6 26.96 6 29 C6.99 29 7.98 29 9 29 C9 29.66 9 30.32 9 31 C7.35 30.67 5.7 30.34 4 30 C4 24.72 4 19.44 4 14 C10.27 14 16.54 14 23 14 C23.33 21.92 23.66 29.84 24 38 C23.34 38 22.68 38 22 38 C22 30.74 22 23.48 22 16 C16.72 16 11.44 16 6 16 C6 17.65 6 19.3 6 21 C9.63 21 13.26 21 17 21 C17 26.61 17 32.22 17 38 C14.26 38.08 11.51 38.16 8.69 38.25 C7.83 38.29 6.97 38.32 6.08 38.36 C5.4 38.37 4.72 38.38 4.01 38.39 C3.32 38.41 2.62 38.43 1.9 38.45 C0 38 0 38 -1.73 36.32 C-3.27 33.51 -3.39 31.69 -3.4 28.5 C-3.4 26.92 -3.4 26.92 -3.41 25.31 C-3.4 24.22 -3.39 23.13 -3.38 22 C-3.39 20.91 -3.4 19.81 -3.41 18.69 C-3.41 17.64 -3.4 16.58 -3.4 15.5 C-3.4 14.54 -3.39 13.58 -3.39 12.59 C-2.93 9.5 -2.28 8.14 0 6 C2.36 5.55 2.36 5.55 5.11 5.61 C6.58 5.63 6.58 5.63 8.08 5.65 C9.11 5.68 10.13 5.72 11.19 5.75 C12.74 5.78 12.74 5.78 14.33 5.8 C16.89 5.85 19.44 5.92 22 6 C22 4.35 22 2.7 22 1 C14.74 1 7.48 1 0 1 C0 0.67 0 0.34 0 0 Z " fill="#847E99" transform="translate(428,55)"/>
<path d="M0 0 C3.38 2.7 5.85 4.76 8.56 7.94 C9.12 8.59 9.68 9.23 10.25 9.9 C12.2 12.24 14.11 14.62 16 17 C14.08 19.08 12.17 21.17 10.25 23.25 C9.71 23.84 9.17 24.42 8.62 25.03 C8.09 25.6 7.56 26.17 7.02 26.77 C6.29 27.55 6.29 27.55 5.56 28.35 C3.74 30.27 1.87 32.13 0 34 C0 22.78 0 11.56 0 0 Z " fill="#663766" transform="translate(289,207)"/>
<path d="M0 0 C7.92 0 15.84 0 24 0 C24 4.95 24 9.9 24 15 C17.29 15.77 10.75 16.13 4 16 C4 15.34 4 14.68 4 14 C10.27 14 16.54 14 23 14 C23 12.02 23 10.04 23 8 C19.56 8.08 16.12 8.19 12.69 8.31 C11.71 8.34 10.73 8.36 9.73 8.38 C8.79 8.42 7.85 8.45 6.89 8.49 C5.59 8.53 5.59 8.53 4.27 8.57 C1.54 9.09 0.58 9.73 -1 12 C-0.95 16.35 -0.95 16.35 1 20 C2.75 20.13 4.5 20.23 6.25 20.31 C9.85 20.63 11.88 20.94 15.12 22.62 C17.69 25.88 18.14 27.86 18 32 C16.39 34.86 15.63 36.22 13 38 C9.2 38.74 5.54 38.57 1.69 38.38 C0.66 38.35 -0.37 38.32 -1.42 38.29 C-3.95 38.22 -6.47 38.12 -9 38 C-9 39.98 -9 41.96 -9 44 C-9.33 44 -9.66 44 -10 44 C-10 39.38 -10 34.76 -10 30 C-3.4 30 3.2 30 10 30 C10 30.33 10 30.66 10 31 C3.73 31 -2.54 31 -9 31 C-9 32.65 -9 34.3 -9 36 C-5.37 35.89 -1.75 35.76 1.88 35.62 C3.42 35.58 3.42 35.58 5 35.53 C6.48 35.47 6.48 35.47 7.99 35.41 C8.9 35.38 9.81 35.35 10.75 35.32 C13.2 35.2 13.2 35.2 15 33 C15.48 28.92 15.48 28.92 13.82 25.33 C11.36 23.53 9.64 23.7 6.62 23.69 C2.8 23.43 0.42 23.24 -2.25 20.38 C-4.4 16.23 -4.39 14.43 -3 10 C-1.64 7.8 -1.64 7.8 1 6 C4.76 5.5 8.47 5.63 12.25 5.75 C13.28 5.77 14.31 5.79 15.38 5.8 C17.92 5.85 20.46 5.92 23 6 C23 4.35 23 2.7 23 1 C15.41 1 7.82 1 0 1 C0 0.67 0 0.34 0 0 Z " fill="#89839D" transform="translate(358,55)"/>
<path d="M0 0 C4.18 1.37 6.54 3.21 9.56 6.38 C10.68 7.53 10.68 7.53 11.82 8.71 C12.54 9.47 13.26 10.22 14 11 C15.32 12.32 16.64 13.64 18 15 C7.11 15 -3.78 15 -15 15 C-8.25 7.12 -8.25 7.12 -4.12 3.56 C-3.34 2.88 -2.56 2.2 -1.76 1.5 C-1.18 1.01 -0.6 0.51 0 0 Z " fill="#663766" transform="translate(195,115)"/>
<path d="M0 0 C0.95 0.01 1.91 0.02 2.89 0.03 C4.44 0.04 4.44 0.04 6.01 0.05 C7.63 0.08 7.63 0.08 9.29 0.1 C10.37 0.11 11.46 0.12 12.58 0.13 C15.28 0.15 17.97 0.19 20.66 0.23 C20.66 2.21 20.66 4.19 20.66 6.23 C14.39 6.23 8.12 6.23 1.66 6.23 C1.66 6.89 1.66 7.55 1.66 8.23 C6.28 8.23 10.9 8.23 15.66 8.23 C15.66 9.88 15.66 11.53 15.66 13.23 C9.06 13.23 2.46 13.23 -4.34 13.23 C-4.53 4.83 -4.53 4.83 -4.34 2.23 C-2.34 0.23 -2.34 0.23 0 0 Z " fill="#F6F5F7" transform="translate(396.33837890625,62.77294921875)"/>
<path d="M0 0 C6.6 0 13.2 0 20 0 C20 1.98 20 3.96 20 6 C15.38 6 10.76 6 6 6 C6 6.66 6 7.32 6 8 C11.94 8 17.88 8 24 8 C24 9.65 24 11.3 24 13 C20.38 13.06 16.75 13.09 13.12 13.12 C12.09 13.14 11.06 13.16 10 13.18 C9.01 13.18 8.02 13.19 7.01 13.2 C5.64 13.21 5.64 13.21 4.25 13.23 C2 13 2 13 0 11 C-0.28 7.32 -0.09 3.7 0 0 Z " fill="#F7F7F9" transform="translate(392,78)"/>
<path d="M0 0 C0.33 0 0.66 0 1 0 C1 10.89 1 21.78 1 33 C-2.39 29.61 -5.63 26.25 -8.81 22.69 C-9.6 21.8 -10.39 20.92 -11.21 20.01 C-11.8 19.35 -12.39 18.68 -13 18 C-11.55 13.47 -9.19 10.74 -5.94 7.31 C-2.58 3.93 -2.58 3.93 0 0 Z " fill="#663766" transform="translate(104,206)"/>
<path d="M0 0 C10.23 0 20.46 0 31 0 C27.61 3.39 24.25 6.63 20.69 9.81 C19.36 11 19.36 11 18.01 12.21 C17.02 13.09 17.02 13.09 16 14 C12.32 12.43 9.79 10.15 6.88 7.44 C3.68 4.36 3.68 4.36 0 2 C0 1.34 0 0.68 0 0 Z " fill="#663766" transform="translate(181,317)"/>
<path d="M0 0 C2.5 0.13 2.5 0.13 5 1 C6.15 2.65 6.15 2.65 6.94 4.94 C7.25 5.83 7.56 6.71 7.89 7.63 C8.25 8.74 8.62 9.85 9 11 C9.53 12.51 10.05 14.02 10.58 15.53 C11.14 17.14 11.7 18.76 12.25 20.38 C12.52 21.16 12.79 21.94 13.07 22.75 C13.32 23.5 13.57 24.25 13.83 25.02 C14.05 25.69 14.28 26.36 14.51 27.05 C15 29 15 29 15 33 C9.72 33 4.44 33 -1 33 C-1 34.98 -1 36.96 -1 39 C-1.99 38.01 -2.98 37.02 -4 36 C-3.34 34.02 -2.68 32.04 -2 30 C-1.67 30.66 -1.34 31.32 -1 32 C3.62 32 8.24 32 13 32 C12.44 30.7 11.89 29.4 11.31 28.06 C9.03 22.39 7.33 16.59 5.66 10.72 C4.57 6.77 4.57 6.77 3 3 C2.01 2.67 1.02 2.34 0 2 C-0.12 2.84 -0.24 3.69 -0.36 4.56 C-1.42 10.27 -3.4 15.71 -5.24 21.22 C-5.94 23.32 -6.63 25.43 -7.32 27.54 C-7.76 28.88 -8.21 30.21 -8.65 31.55 C-9.26 33.37 -9.26 33.37 -9.87 35.23 C-11 38 -11 38 -13 39 C-12.41 34.04 -11.36 29.56 -9.79 24.82 C-9.57 24.17 -9.35 23.52 -9.13 22.85 C-8.68 21.49 -8.22 20.13 -7.76 18.76 C-7.06 16.68 -6.37 14.59 -5.68 12.5 C-5.24 11.17 -4.79 9.84 -4.35 8.51 C-3.95 7.31 -3.54 6.11 -3.13 4.87 C-2 2 -2 2 0 0 Z " fill="#827B97" transform="translate(469,60)"/>
<path d="M0 0 C7.59 0 15.18 0 23 0 C23 2.64 23 5.28 23 8 C22.34 8.03 21.68 8.05 21 8.08 C18.02 8.19 15.04 8.31 12.06 8.44 C10.5 8.5 10.5 8.5 8.91 8.56 C7.42 8.62 7.42 8.62 5.91 8.68 C4.99 8.72 4.08 8.76 3.13 8.79 C1.02 8.77 1.02 8.77 0 10 C-0.09 11.85 -0.11 13.71 -0.1 15.57 C-0.09 16.69 -0.09 17.82 -0.09 18.97 C-0.08 20.16 -0.07 21.34 -0.06 22.56 C-0.06 23.75 -0.05 24.94 -0.05 26.16 C-0.04 29.11 -0.02 32.05 0 35 C4.95 35.33 9.9 35.66 15 36 C15 36.33 15 36.66 15 37 C12.56 37.28 10.13 37.52 7.69 37.75 C7 37.83 6.31 37.91 5.6 38 C3.57 38.17 3.57 38.17 0 38 C-2.19 35.85 -2.93 34.45 -3.39 31.41 C-3.39 29.97 -3.39 29.97 -3.4 28.5 C-3.4 26.92 -3.4 26.92 -3.41 25.31 C-3.4 24.22 -3.39 23.13 -3.38 22 C-3.39 20.91 -3.4 19.81 -3.41 18.69 C-3.41 17.64 -3.4 16.58 -3.4 15.5 C-3.4 14.54 -3.39 13.58 -3.39 12.59 C-2.93 9.5 -2.28 8.14 0 6 C2.36 5.55 2.36 5.55 5.11 5.61 C6.58 5.63 6.58 5.63 8.08 5.65 C9.11 5.68 10.13 5.72 11.19 5.75 C12.74 5.78 12.74 5.78 14.33 5.8 C16.89 5.85 19.44 5.92 22 6 C22 4.35 22 2.7 22 1 C14.74 1 7.48 1 0 1 C0 0.67 0 0.34 0 0 Z " fill="#8D86A0" transform="translate(428,55)"/>
<path d="M0 0 C2 2 2 2 2.23 4.52 C2.22 5.56 2.21 6.6 2.2 7.66 C2.19 8.79 2.18 9.91 2.18 11.06 C2.16 12.24 2.14 13.41 2.12 14.62 C2.12 15.81 2.11 16.99 2.1 18.21 C2.07 21.14 2.04 24.07 2 27 C1.34 27.33 0.68 27.66 0 28 C0 26.02 0 24.04 0 22 C-6.27 22 -12.54 22 -19 22 C-19 21.67 -19 21.34 -19 21 C-14.05 21 -9.1 21 -4 21 C-4 16.38 -4 11.76 -4 7 C-2.68 7 -1.36 7 0 7 C0 4.69 0 2.38 0 0 Z " fill="#4D446C" transform="translate(417,63)"/>
<path d="M0 0 C1.88 1.06 1.88 1.06 3 3 C3.51 7.03 3.61 9.13 1.25 12.5 C-1 14 -1 14 -3.06 14.19 C-6.26 12.23 -6.85 9.46 -8 6 C-8.19 3.06 -8.19 3.06 -8 1 C-5.2 -0.4 -3.1 -0.25 0 0 Z " fill="#6E406E" transform="translate(647,213)"/>
<path d="M0 0 C0.33 0 0.66 0 1 0 C1.83 4.38 2.16 8.55 2.19 13 C2.2 14.18 2.22 15.35 2.23 16.56 C2 20.04 1.25 22.76 0 26 C-0.33 26 -0.66 26 -1 26 C-1.06 25.2 -1.13 24.41 -1.19 23.59 C-1.99 16.02 -1.99 16.02 -6.62 10.31 C-7.75 9.54 -8.87 8.76 -10 8 C-10 7.67 -10 7.34 -10 7 C-6.7 7 -3.4 7 0 7 C0 4.69 0 2.38 0 0 Z " fill="#544B71" transform="translate(382,63)"/>
<path d="M0 0 C5.33 -0.36 5.33 -0.36 7.88 1 C9.75 4.34 9.3 7.21 9 11 C8.34 11.66 7.68 12.32 7 13 C5.68 13 4.36 13 3 13 C2.3 11.4 1.62 9.8 0.94 8.19 C0.55 7.29 0.17 6.4 -0.22 5.48 C-1 3 -1 3 0 0 Z " fill="#6F416F" transform="translate(647,233)"/>
<path d="M0 0 C0.66 0 1.32 0 2 0 C2 1.32 2 2.64 2 4 C-3.28 4 -8.56 4 -14 4 C-14 5.98 -14 7.96 -14 10 C-14.99 9.01 -15.98 8.02 -17 7 C-16.34 5.02 -15.68 3.04 -15 1 C-14.67 1.66 -14.34 2.32 -14 3 C-9.38 3 -4.76 3 0 3 C0 2.01 0 1.02 0 0 Z " fill="#686082" transform="translate(482,89)"/>
<path d="M0 0 C3.26 3.02 5.72 6.18 8 10 C8 10.99 8 11.98 8 13 C7.01 13.33 6.02 13.66 5 14 C4.16 12.04 3.33 10.08 2.5 8.12 C2.04 7.03 1.57 5.94 1.09 4.82 C0 2 0 2 0 0 Z " fill="#744774" transform="translate(563,256)"/>
<path d="M0 0 C0.66 0 1.32 0 2 0 C2.53 1.41 3.05 2.83 3.56 4.25 C3.85 5.04 4.14 5.83 4.44 6.64 C5.05 9.19 4.85 10.55 4 13 C0.91 9.91 0.06 6.45 -0.12 2.12 C-0.08 1.42 -0.04 0.72 0 0 Z " fill="#928CA5" transform="translate(478,77)"/>
<path d="M0 0 C0.33 0 0.66 0 1 0 C1.33 4.95 1.66 9.9 2 15 C2.99 15 3.98 15 5 15 C5 15.66 5 16.32 5 17 C3.35 16.67 1.7 16.34 0 16 C0 10.72 0 5.44 0 0 Z " fill="#837D98" transform="translate(432,69)"/>
<path d="M0 0 C0.66 0 1.32 0 2 0 C0.38 7.75 0.38 7.75 -3 10 C-1.12 2.25 -1.12 2.25 0 0 Z " fill="#513C5A" transform="translate(276,240)"/>
<path d="M0 0 C0.66 0 1.32 0 2 0 C2.33 1.98 2.66 3.96 3 6 C1.68 6 0.36 6 -1 6 C-0.67 4.02 -0.34 2.04 0 0 Z " fill="#7B7491" transform="translate(470,79)"/>
</svg>
